HIERARCHY
ROOT Hips
{
  OFFSET 53.7402 93.6861 9.38568
  CHANNELS 6 Xposition Yposition Zposition Zrotation Xrotation Yrotation
  JOINT spine
  {
    OFFSET 0 7.4756 0.429885
    CHANNELS 3 Zrotation Xrotation Yrotation
    JOINT spine1
    {
      OFFSET 0 9.92301 0
      CHANNELS 3 Zrotation Xrotation Yrotation
      JOINT spine2
      {
        OFFSET 0 9.50804 0
        CHANNELS 3 Zrotation Xrotation Yrotation
        JOINT Neck
        {
          OFFSET 0 24.4111 1.16384
          CHANNELS 3 Zrotation Xrotation Yrotation
          JOINT Head
          {
            OFFSET 0 7.37523 0
            CHANNELS 3 Zrotation Xrotation Yrotation
            End Site
            {
              OFFSET 0 17.8522 -5.88741
            }
          }
        }
        JOINT RightShoulder
        {
          OFFSET -4.00356 10.2679 -0.557468
          CHANNELS 3 Zrotation Xrotation Yrotation
          JOINT RightArm
          {
            OFFSET 0 13.4673 0
            CHANNELS 3 Zrotation Xrotation Yrotation
            JOINT RightArmRoll
            {
              OFFSET 0 6.79858 0
              CHANNELS 3 Zrotation Xrotation Yrotation
              JOINT RightForeArm
              {
                OFFSET 0 19.8018 0
                CHANNELS 3 Zrotation Xrotation Yrotation
                JOINT RightForeArmRoll
                {
                  OFFSET 0 7.62906 0
                  CHANNELS 3 Zrotation Xrotation Yrotation
                  JOINT RightHand
                  {
                    OFFSET 0 15.3098 0
                    CHANNELS 3 Zrotation Xrotation Yrotation
                    End Site
                    {
                      OFFSET 0 0 0
                    }
                  }
                }
              }
            }
          }
        }
        JOINT LeftShoulder
        {
          OFFSET 4.00356 10.2679 -0.557468
          CHANNELS 3 Zrotation Xrotation Yrotation
          JOINT LeftArm
          {
            OFFSET 0 13.4673 0
            CHANNELS 3 Zrotation Xrotation Yrotation
            JOINT LeftArmRoll
            {
              OFFSET 0 6.79858 0
              CHANNELS 3 Zrotation Xrotation Yrotation
              JOINT LeftForeArm
              {
                OFFSET 0 19.8018 0
                CHANNELS 3 Zrotation Xrotation Yrotation
                JOINT LeftForeArmRoll
                {
                  OFFSET 0 7.62906 0
                  CHANNELS 3 Zrotation Xrotation Yrotation
                  JOINT LeftHand
                  {
                    OFFSET 0 15.3098 0
                    CHANNELS 3 Zrotation Xrotation Yrotation
                    End Site
                    {
                      OFFSET 0 0 0
                    }
                  }
                }
              }
            }
          }
        }
      }
    }
  }
  JOINT RightUpLeg
  {
    OFFSET -6.62609 -1.21505 -1.01927
    CHANNELS 3 Zrotation Xrotation Yrotation
    JOINT RightUpLegRoll
    {
      OFFSET 0 17.9517 0
      CHANNELS 3 Zrotation Xrotation Yrotation
      JOINT RightLeg
      {
        OFFSET 0 -22.2304 0
        CHANNELS 3 Zrotation Xrotation Yrotation
        JOINT RightLegRoll
        {
          OFFSET 0 22.3032 0
          CHANNELS 3 Zrotation Xrotation Yrotation
          JOINT RightFoot
          {
            OFFSET 0 18.5636 0
            CHANNELS 3 Zrotation Xrotation Yrotation
            JOINT RightToeBase
            {
              OFFSET 0 15.5183 0
              CHANNELS 3 Zrotation Xrotation Yrotation
              End Site
              {
                OFFSET 0.00657761 7.51538 -0.866263
              }
            }
          }
        }
      }
    }
  }
  JOINT LeftUpLeg
  {
    OFFSET 6.62609 -1.21505 -1.01927
    CHANNELS 3 Zrotation Xrotation Yrotation
    JOINT LeftUpLegRoll
    {
      OFFSET 0 17.9518 0
      CHANNELS 3 Zrotation Xrotation Yrotation
      JOINT LeftLeg
      {
        OFFSET 0 22.2303 0
        CHANNELS 3 Zrotation Xrotation Yrotation
        JOINT LeftLegRoll
        {
          OFFSET 0 22.5093 0
          CHANNELS 3 Zrotation Xrotation Yrotation
          JOINT LeftFoot
          {
            OFFSET 0 18.3575 0
            CHANNELS 3 Zrotation Xrotation Yrotation
            JOINT LeftToeBase
            {
              OFFSET 0 15.5183 0
              CHANNELS 3 Zrotation Xrotation Yrotation
              End Site
              {
                OFFSET -0.029478 7.51539 -0.866263
              }
            }
          }
        }
      }
    }
  }
}
MOTION
Frames: 6
Frame Time: 0.00208333
52.0249 93.5945 10.4727 -1.84111 -2.28251 -0.671786 -0.385313 -2.1431 -0.0429757 -0.773561 -0.283321 -0.0507004 -0.772917 1.36166 -0.0377864 18.0777 11.0575 -5.83748 0.864607 -1.96433 -1.19483 21.5604 -15.0984 -12.3402 -2.49671 31.3816 84.5397 -4.8872e-007 -2.22184e-007 -5.326e-006 6.50636 60.7316 -4.27031 -1.04998e-005 1.18683e-006 -3.01161 8.0291 -4.95145 0.697677 -74.6519 2.13837 0.907827 -96.8645 15.3834 -13.9742 -2.5096e-007 -1.08658e-006 1.6775e-006 -9.13093 1.61035 0.788344 1.72294e-005 -6.59167e-007 3.00182 -8.02981 -4.95144 -0.697664 -176.418 -2.16377 -2.41887 -180 7.01566e-015 179.008 177.259 4.8058 179.844 4.19982e-007 -4.4788e-006 0.0387723 -18.5323 67.989 19.5235 8.13649 25.2327 -3.48774 -176.975 -0.303627 2.09146 4.54188e-006 -4.6773e-006 -1.06503 -1.90723 -7.6775 0.0900616 3.40799e-006 2.75706e-007 -0.13158 19.5781 69.2026 -20.5841 -8.13649 25.2326 3.48773 
52.0299 93.5944 10.4728 -1.84689 -2.27095 -0.664907 -0.383498 -2.14567 -0.0413239 -0.769667 -0.288481 -0.0476552 -0.769044 1.3565 -0.0348034 18.0543 11.0232 -5.84047 0.877865 -1.9373 -1.20776 21.5587 -15.1182 -12.365 -2.41311 31.3765 84.5191 -4.8872e-007 -2.22184e-007 -5.326e-006 6.38034 60.4325 -4.18248 -1.04998e-005 1.18683e-006 -3.0116 8.0291 -4.95145 0.697677 -74.647 2.13831 0.907188 -96.8719 15.3694 -13.9664 -2.5096e-007 -1.08658e-006 1.6775e-006 -9.13862 1.62004 0.788877 1.72294e-005 -6.59167e-007 3.00181 -8.02981 -4.95144 -0.697664 -176.414 -2.16108 -2.42284 -180 7.01566e-015 179.008 177.259 4.79216 179.844 4.19982e-007 -4.4788e-006 0.0387849 -18.5291 67.985 19.5199 8.13649 25.2327 -3.48774 -176.971 -0.291029 2.09095 4.54188e-006 -4.6773e-006 -1.06508 -1.90612 -7.68014 0.0898668 3.40799e-006 2.75706e-007 -0.13156 19.58 69.2046 -20.5857 -8.13649 25.2326 3.48773 
52.0438 93.5944 10.4847 -1.85291 -2.2591 -0.658068 -0.381664 -2.14834 -0.0397089 -0.765712 -0.293837 -0.044671 -0.765114 1.35115 -0.0318823 18.0309 10.9898 -5.84359 0.891534 -1.91053 -1.22063 21.5577 -15.1379 -12.3897 -2.3287 31.372 84.5011 -4.8872e-007 -2.22184e-007 -5.326e-006 6.25495 60.1305 -4.0956 -1.04998e-005 1.18683e-006 -3.01158 8.0291 -4.95145 0.697677 -74.6418 2.13828 0.906499 -96.8796 15.355 -13.9597 -2.5096e-007 -1.08658e-006 1.6775e-006 -9.14548 1.62878 0.789339 1.72294e-005 -6.59167e-007 3.00179 -8.02981 -4.95144 -0.697664 -176.41 -2.15828 -2.42691 -180 7.01566e-015 179.008 177.259 4.77817 179.844 4.19982e-007 -4.4788e-006 0.0387976 -18.5258 67.981 19.5163 8.13649 25.2327 -3.48774 -176.967 -0.278066 2.09003 4.54188e-006 -4.6773e-006 -1.06513 -1.90533 -7.68297 0.0896594 3.40799e-006 2.75706e-007 -0.131544 19.582 69.2066 -20.5873 -8.13649 25.2326 3.48773 
52.0465 93.5934 10.4839 -1.85909 -2.2471 -0.651327 -0.37985 -2.15111 -0.0381657 -0.761775 -0.299372 -0.0418079 -0.76121 1.34561 -0.0290821 18.0079 10.958 -5.84688 0.905093 -1.88424 -1.23331 21.5576 -15.1573 -12.4139 -2.24344 31.3679 84.4855 -4.88719e-007 -2.22184e-007 -5.326e-006 6.1302 59.8261 -4.00976 -1.04998e-005 1.18683e-006 -3.01156 8.0291 -4.95145 0.697677 -74.6365 2.13827 0.905792 -96.887 15.3403 -13.9541 -2.5096e-007 -1.08658e-006 1.6775e-006 -9.15153 1.63649 0.789725 1.72294e-005 -6.59167e-007 3.00178 -8.02981 -4.95144 -0.697664 -176.405 -2.15542 -2.43102 -180 7.01566e-015 179.008 177.26 4.76397 179.844 4.19982e-007 -4.4788e-006 0.0388103 -18.5225 67.9769 19.5128 8.13649 25.2327 -3.48774 -176.962 -0.264932 2.0888 4.54188e-006 -4.6773e-006 -1.06518 -1.90479 -7.68585 0.0894497 3.40799e-006 2.75706e-007 -0.131532 19.584 69.2087 -20.589 -8.13649 25.2326 3.48773 
52.0536 93.5934 10.4781 -1.86534 -2.23508 -0.644741 -0.378094 -2.15395 -0.0367292 -0.757937 -0.305069 -0.0391263 -0.757411 1.33992 -0.0264616 17.9861 10.9282 -5.85037 0.918017 -1.85867 -1.2457 21.5586 -15.176 -12.437 -2.15725 31.3642 84.4722 -4.8872e-007 -2.22184e-007 -5.326e-006 6.00613 59.5195 -3.92499 -1.04998e-005 1.18683e-006 -3.01154 8.0291 -4.95145 0.697677 -74.6312 2.13826 0.905096 -96.8938 15.3254 -13.9499 -2.5096e-007 -1.08658e-006 1.6775e-006 -9.15681 1.64307 0.79003 1.72294e-005 -6.59167e-007 3.00177 -8.02981 -4.95144 -0.697664 -176.401 -2.15255 -2.43509 -180 7.01566e-015 179.008 177.26 4.74974 179.844 4.19982e-007 -4.4788e-006 0.0388231 -18.5193 67.9729 19.5092 8.13649 25.2327 -3.48774 -176.958 -0.251822 2.08739 4.54188e-006 -4.6773e-006 -1.06523 -1.90444 -7.68865 0.089248 3.40799e-006 2.75706e-007 -0.131526 19.5861 69.2108 -20.5907 -8.13649 25.2326 3.48773 
52.063 93.5869 10.4828 -1.87157 -2.22319 -0.63837 -0.376435 -2.15687 -0.0354341 -0.754276 -0.31091 -0.0366864 -0.753796 1.33408 -0.0240798 17.9658 10.9006 -5.85412 0.929783 -1.83403 -1.25769 21.5608 -15.1935 -12.4587 -2.07014 31.3607 84.4609 -4.8872e-007 -2.22184e-007 -5.326e-006 5.88276 59.2112 -3.84136 -1.04998e-005 1.18683e-006 -3.01152 8.0291 -4.95145 0.697677 -74.6262 2.13822 0.904441 -96.8994 15.3101 -13.9471 -2.5096e-007 -1.08658e-006 1.6775e-006 -9.16134 1.64846 0.790248 1.72294e-005 -6.59167e-007 3.00175 -8.02981 -4.95144 -0.697664 -176.397 -2.1497 -2.43904 -180 7.01566e-015 179.008 177.259 4.73558 179.844 4.19982e-007 -4.4788e-006 0.038836 -18.5161 67.9689 19.5057 8.13649 25.2327 -3.48774 -176.953 -0.238932 2.08588 4.54188e-006 -4.6773e-006 -1.06528 -1.90424 -7.69126 0.0890644 3.40799e-006 2.75706e-007 -0.131526 19.5882 69.213 -20.5926 -8.13649 25.2326 3.48773 
